# xmcd
#
# Track frame offsets:
#	150
#	20076
#	29688
#	39597
#	56283
#	70971
#	90438
#	110256
#	127725
#	142899
#	145680
#	159423
#	176406
#	195846
#	218796
#
# Disc length: 3193 seconds
#
# Revision: 0
# Processed by: cddbd v1.5.1PL0 Copyright (c) Steve Scherf et al.
# Submitted via: dBpowerAMP V4.0
#
DISCID=c00c770f
DTITLE=This Song is a Mess But So am I - Church Point, LA
DYEAR=2004
DGENRE=Post-Rock
TTITLE0=God and Cancer
TTITLE1=Bedridden and Dancing
TTITLE2=Song for Donna Ruppert
TTITLE3=Happy New Year
TTITLE4=High Fives for Jamie
TTITLE5=Psalm 88
TTITLE6=A Heart for Amy
TTITLE7=Regrets
TTITLE8=Parting Sea
TTITLE9=xClassical Gregx
TTITLE10=Washington Explorers
TTITLE11=Bones Bones Bones
TTITLE12=Thank You, Josh
TTITLE13=A Louisiana Sunset
TTITLE14=Rest
EXTD=
EXTT0=
EXTT1=
EXTT2=
EXTT3=
EXTT4=
EXTT5=
EXTT6=
EXTT7=
EXTT8=
EXTT9=
EXTT10=
EXTT11=
EXTT12=
EXTT13=
EXTT14=
PLAYORDER=
